<svg width="309" height="74" viewBox="0 0 309 74" fill="none" xmlns="http://www.w3.org/2000/svg">
<path d="M39.8439 16.3439H36.3936C36.2905 16.3439 36.1915 16.303 36.1185 16.2302C36.0683 16.1802 36.0328 16.1176 36.0155 16.0489L35.8512 15.3937C35.5972 14.6344 35.2896 13.8943 34.9306 13.1787L34.8977 13.1131L34.3256 12.1629L33.5628 11.0226L32.6093 9.88235L31.4651 8.74208L30.3209 7.79186L28.7953 6.84163L27.0791 5.8914C26.1911 5.51213 25.2697 5.2162 24.327 5.00741L24.0279 4.94118L22.693 4.75113H18.6884C17.6738 4.87752 16.6741 5.10351 15.7038 5.42584L15.4465 5.51131L14.1116 6.08145L13.9172 6.17831C13.0327 6.61905 12.2021 7.16048 11.4419 7.79186L9.91628 9.12217L8.77209 10.2624L8.19723 10.9172C7.69198 11.4926 7.24919 12.1201 6.87632 12.789C6.61495 13.2578 6.38881 13.7455 6.19976 14.2478L5.91163 15.0136L5.63658 15.8359C5.4388 16.4272 5.28337 17.0318 5.17146 17.6452C5.02954 18.4231 4.95814 19.2123 4.95814 20.003V22.6154L5.14884 24.3258L5.53023 25.8462C5.78387 26.6045 6.11197 27.3358 6.50971 28.0295L6.67442 28.3167L7.43721 29.6471L8.3907 30.9774C9.15236 31.8629 9.98162 32.6893 10.8698 33.448L12.2047 34.3982L12.3421 34.4729C13.6471 35.1823 15.0035 35.7926 16.4 36.2986C17.4133 36.5511 18.4536 36.6787 19.4978 36.6787H20.9153C21.7139 36.6787 22.5072 36.5504 23.2651 36.2986L24.6 35.7285L25.4593 35.2147C25.5177 35.1798 25.5535 35.1167 25.5535 35.0486C25.5535 34.9972 25.533 34.9479 25.4966 34.9116L24.8701 34.2873C23.576 32.9976 24.4893 30.7873 26.3163 30.7873H26.6977H26.7525C27.0898 30.7873 27.4197 30.8869 27.7006 31.0736L27.8153 31.1498C27.833 31.1615 27.8494 31.175 27.8644 31.1899L28.0101 31.3351C28.1594 31.4838 28.414 31.3781 28.414 31.1674V30.2172V29.2571C28.414 28.7715 28.2483 28.3004 27.9443 27.9217C27.7512 27.6811 27.5082 27.4853 27.2321 27.3477L26.8468 27.1557C26.6207 27.0431 26.3848 26.9516 26.1419 26.8825L25.1721 26.6063L22.693 26.2262L20.4047 25.6561L17.5442 24.8959L16.7148 24.6204C15.7521 24.3006 14.8643 23.789 14.105 23.1163L14.0537 23.0709C13.7118 22.768 13.4012 22.4315 13.1265 22.0665L13.0488 21.9634C12.6166 21.389 12.2893 20.7427 12.0821 20.0544L12.0722 20.0216C11.9071 19.4732 11.8233 18.9036 11.8233 18.3308C11.8233 17.645 11.9435 16.9645 12.1786 16.3202L12.3009 15.9851C12.4905 15.4656 12.7342 14.9674 13.028 14.4988L13.1852 14.2482C13.4207 13.8728 13.698 13.5253 14.0119 13.2125L14.0538 13.1708C14.471 12.755 14.9525 12.4091 15.4798 12.1463C15.7116 12.0308 15.9513 11.9319 16.1971 11.8502L16.9721 11.5928C17.4787 11.4665 17.9989 11.4027 18.521 11.4027H18.8791H25.5302C26.0523 11.4027 26.5724 11.4665 27.0791 11.5928C27.46 11.7193 27.8315 11.8727 28.1907 12.0517L28.414 12.1629L28.9534 12.4989C29.6007 12.9021 30.1381 13.4594 30.5174 14.1209C30.6405 14.3356 30.7461 14.5598 30.8332 14.7914L31.2235 15.8285C31.2573 15.9184 31.2805 16.012 31.2924 16.1073L31.4414 17.2949C31.454 17.3954 31.3757 17.4842 31.2744 17.4842H28.1337C27.721 17.4842 27.3436 17.2513 27.1586 16.8824C27.1059 16.7775 27.0367 16.6817 26.9535 16.5989L26.6271 16.2735C26.5472 16.1939 26.4597 16.1224 26.3658 16.06C26.0848 15.8733 25.7549 15.7738 25.4176 15.7738H25.3628H24.2186H20.9767H19.4512H18.7327C18.3273 15.7738 17.9274 15.8679 17.5646 16.0487L17.5097 16.076C17.4058 16.1278 17.3067 16.1888 17.2137 16.2583C16.8139 16.5572 16.5447 16.9988 16.4624 17.4911L16.4327 17.6687C16.4109 17.7989 16.4 17.9306 16.4 18.0625V18.31C16.4 18.6418 16.4775 18.9689 16.6262 19.2653C16.729 19.4702 16.8642 19.6572 17.0265 19.8189L17.1794 19.9713C17.2953 20.0868 17.4193 20.194 17.5503 20.2919L17.5657 20.3034C17.9297 20.5755 18.3403 20.7787 18.7774 20.9032L19.0582 20.9831C19.3198 21.0576 19.5867 21.1119 19.8566 21.1455L20.9767 21.2851L22.3116 21.4751L23.8372 21.6652L25.3628 21.8552L27.0791 22.2353L28.1058 22.4911C28.4378 22.5738 28.7627 22.6829 29.0774 22.8173L29.0972 22.8258C29.6558 23.0643 30.1769 23.3826 30.6442 23.7707C30.9366 24.0136 31.2064 24.2825 31.4503 24.5741L32.0372 25.276L32.2908 25.655C32.6277 26.1588 32.8754 26.7168 33.0229 27.3046C33.1281 27.7244 33.1814 28.1555 33.1814 28.5883V29.6471L33.0991 30.8769C33.0272 31.9516 32.7979 33.01 32.4186 34.0181C31.9614 34.9293 32.1282 36.0297 32.8348 36.7645L34.1086 38.0891C35.0672 39.086 34.7833 40.7267 33.5455 41.3435C32.7582 41.7358 31.8083 41.5818 31.1852 40.9609L29.4699 39.2514C29.0825 38.8654 28.4706 38.8219 28.0326 39.1493L26.6977 39.9095L26.5887 39.9578C25.5198 40.4312 24.4065 40.797 23.2651 41.0498L21.5488 41.2398H19.3801C18.5388 41.2398 17.6987 41.1758 16.867 41.0483C16.0483 40.9228 15.2401 40.7361 14.4493 40.4898L12.586 39.9095L10.4884 38.9593L8.96279 38.0091L8.39105 37.5947C7.37532 36.8585 6.41879 36.0439 5.53023 35.1584L4.38605 33.8281C3.37184 32.5646 2.49414 31.1975 1.7676 29.7494L1.71628 29.6471L1.37398 28.7942C0.841077 27.4665 0.459091 26.0832 0.235216 24.6701C0.0786475 23.6819 0 22.6829 0 21.6824V21.095L0.0787441 19.5255C0.153105 18.0434 0.406949 16.5757 0.834716 15.1547C1.16742 14.0495 1.60364 12.9781 2.13757 11.9549L2.45231 11.3517C3.35708 9.61768 4.45796 7.99331 5.73333 6.51048L6.10233 6.08145C7.62513 4.69032 9.26381 3.43159 11.0005 2.31894L11.0605 2.28054L12.9674 1.33032L15.0651 0.570136L16.1975 0.253012L17.0705 0.0348218C17.1631 0.0116945 17.2581 0 17.3535 0H17.5442H18.307H20.0233H22.8837L23.8372 0.0708411L24.7907 0.260886L25.3628 0.380091L26.6977 0.760181L28.0326 1.14027L29.3674 1.71041L30.893 2.47059L32.2279 3.23077L33.3721 3.99095L34.5163 4.94118L35.8512 6.27149L36.8047 7.41177L37.5674 8.36199L38.3302 9.50226L38.7116 10.2624L39.093 11.0226L39.4744 11.7828L39.8558 12.543L40.2372 13.3032L40.2576 13.354C40.4978 13.9523 40.6824 14.5715 40.8093 15.2036C40.9091 15.8004 40.449 16.3439 39.8439 16.3439Z" fill="white"/>
<path d="M60.8 38.63L58.46 36.32C57.64 36.94 56.725 37.425 55.715 37.775C54.715 38.125 53.66 38.3 52.55 38.3C51.13 38.3 49.795 38.02 48.545 37.46C47.295 36.89 46.195 36.11 45.245 35.12C44.295 34.12 43.55 32.96 43.01 31.64C42.47 30.32 42.2 28.91 42.2 27.41C42.2 25.91 42.47 24.505 43.01 23.195C43.55 21.875 44.295 20.715 45.245 19.715C46.195 18.715 47.295 17.935 48.545 17.375C49.795 16.805 51.13 16.52 52.55 16.52C53.98 16.52 55.32 16.805 56.57 17.375C57.82 17.935 58.92 18.715 59.87 19.715C60.82 20.715 61.56 21.875 62.09 23.195C62.63 24.505 62.9 25.91 62.9 27.41C62.9 28.58 62.73 29.695 62.39 30.755C62.05 31.805 61.585 32.775 60.995 33.665L63.38 36.05L60.8 38.63ZM52.55 34.64C53.13 34.64 53.7 34.555 54.26 34.385C54.82 34.205 55.335 33.955 55.805 33.635L53.9 31.73L56.48 29.135L58.265 30.935C58.585 30.415 58.825 29.855 58.985 29.255C59.155 28.655 59.24 28.04 59.24 27.41C59.24 26.41 59.065 25.475 58.715 24.605C58.365 23.735 57.88 22.97 57.26 22.31C56.65 21.64 55.94 21.12 55.13 20.75C54.33 20.37 53.47 20.18 52.55 20.18C51.63 20.18 50.765 20.37 49.955 20.75C49.145 21.13 48.43 21.655 47.81 22.325C47.2 22.985 46.72 23.75 46.37 24.62C46.03 25.49 45.86 26.42 45.86 27.41C45.86 28.4 46.035 29.335 46.385 30.215C46.735 31.085 47.215 31.855 47.825 32.525C48.445 33.185 49.155 33.705 49.955 34.085C50.765 34.455 51.63 34.64 52.55 34.64ZM65.6152 32.45V23H69.2752V31.49C69.2752 32.08 69.4202 32.62 69.7102 33.11C70.0002 33.59 70.3852 33.975 70.8652 34.265C71.3552 34.545 71.8902 34.685 72.4702 34.685C73.0702 34.685 73.6102 34.545 74.0902 34.265C74.5702 33.975 74.9552 33.59 75.2452 33.11C75.5352 32.62 75.6802 32.08 75.6802 31.49V23H79.3402L79.3552 38H75.6952L75.6802 36.635C75.1602 37.175 74.5452 37.605 73.8352 37.925C73.1252 38.235 72.3652 38.39 71.5552 38.39C70.4652 38.39 69.4702 38.125 68.5702 37.595C67.6702 37.055 66.9502 36.34 66.4102 35.45C65.8802 34.55 65.6152 33.55 65.6152 32.45ZM93.7334 23H97.3934V38H93.7334L93.5684 36.14C93.1584 36.81 92.6134 37.355 91.9334 37.775C91.2634 38.185 90.4684 38.39 89.5484 38.39C88.4384 38.39 87.3984 38.18 86.4284 37.76C85.4584 37.34 84.6034 36.76 83.8634 36.02C83.1334 35.28 82.5584 34.425 82.1384 33.455C81.7284 32.485 81.5234 31.445 81.5234 30.335C81.5234 29.265 81.7184 28.26 82.1084 27.32C82.5084 26.38 83.0634 25.555 83.7734 24.845C84.4834 24.135 85.3034 23.58 86.2334 23.18C87.1634 22.78 88.1634 22.58 89.2334 22.58C90.2234 22.58 91.1084 22.8 91.8884 23.24C92.6784 23.68 93.3484 24.24 93.8984 24.92L93.7334 23ZM89.4584 34.865C90.2384 34.865 90.9284 34.67 91.5284 34.28C92.1284 33.89 92.5984 33.365 92.9384 32.705C93.2784 32.035 93.4484 31.3 93.4484 30.5C93.4484 29.69 93.2784 28.955 92.9384 28.295C92.5984 27.625 92.1234 27.095 91.5134 26.705C90.9134 26.315 90.2284 26.12 89.4584 26.12C88.6884 26.12 87.9834 26.32 87.3434 26.72C86.7134 27.11 86.2084 27.635 85.8284 28.295C85.4584 28.955 85.2734 29.69 85.2734 30.5C85.2734 31.31 85.4634 32.045 85.8434 32.705C86.2234 33.365 86.7284 33.89 87.3584 34.28C87.9984 34.67 88.6984 34.865 89.4584 34.865ZM111.729 15.5H115.389V38H111.729V36.125C111.249 36.795 110.644 37.34 109.914 37.76C109.184 38.18 108.339 38.39 107.379 38.39C106.289 38.39 105.269 38.185 104.319 37.775C103.369 37.365 102.529 36.8 101.799 36.08C101.079 35.35 100.514 34.51 100.104 33.56C99.6945 32.61 99.4895 31.59 99.4895 30.5C99.4895 29.41 99.6945 28.39 100.104 27.44C100.514 26.49 101.079 25.655 101.799 24.935C102.529 24.205 103.369 23.635 104.319 23.225C105.269 22.815 106.289 22.61 107.379 22.61C108.339 22.61 109.184 22.82 109.914 23.24C110.644 23.65 111.249 24.195 111.729 24.875V15.5ZM107.424 34.865C108.204 34.865 108.894 34.67 109.494 34.28C110.094 33.89 110.564 33.365 110.904 32.705C111.244 32.035 111.414 31.3 111.414 30.5C111.414 29.69 111.244 28.955 110.904 28.295C110.564 27.625 110.089 27.095 109.479 26.705C108.879 26.315 108.194 26.12 107.424 26.12C106.654 26.12 105.949 26.32 105.309 26.72C104.679 27.11 104.174 27.635 103.794 28.295C103.424 28.955 103.239 29.69 103.239 30.5C103.239 31.31 103.429 32.045 103.809 32.705C104.189 33.365 104.694 33.89 105.324 34.28C105.964 34.67 106.664 34.865 107.424 34.865ZM119.308 38L119.293 23H122.953L122.968 24.335C123.478 23.795 124.088 23.37 124.798 23.06C125.508 22.74 126.273 22.58 127.093 22.58C127.643 22.58 128.193 22.66 128.743 22.82L127.303 26.51C126.923 26.36 126.543 26.285 126.163 26.285C125.573 26.285 125.033 26.43 124.543 26.72C124.063 27 123.678 27.385 123.388 27.875C123.108 28.355 122.968 28.89 122.968 29.48V38H119.308ZM141.333 23H144.993V38H141.333L141.168 36.14C140.758 36.81 140.213 37.355 139.533 37.775C138.863 38.185 138.068 38.39 137.148 38.39C136.038 38.39 134.998 38.18 134.028 37.76C133.058 37.34 132.203 36.76 131.463 36.02C130.733 35.28 130.158 34.425 129.738 33.455C129.328 32.485 129.123 31.445 129.123 30.335C129.123 29.265 129.318 28.26 129.708 27.32C130.108 26.38 130.663 25.555 131.373 24.845C132.083 24.135 132.903 23.58 133.833 23.18C134.763 22.78 135.763 22.58 136.833 22.58C137.823 22.58 138.708 22.8 139.488 23.24C140.278 23.68 140.948 24.24 141.498 24.92L141.333 23ZM137.058 34.865C137.838 34.865 138.528 34.67 139.128 34.28C139.728 33.89 140.198 33.365 140.538 32.705C140.878 32.035 141.048 31.3 141.048 30.5C141.048 29.69 140.878 28.955 140.538 28.295C140.198 27.625 139.723 27.095 139.113 26.705C138.513 26.315 137.828 26.12 137.058 26.12C136.288 26.12 135.583 26.32 134.943 26.72C134.313 27.11 133.808 27.635 133.428 28.295C133.058 28.955 132.873 29.69 132.873 30.5C132.873 31.31 133.063 32.045 133.443 32.705C133.823 33.365 134.328 33.89 134.958 34.28C135.598 34.67 136.298 34.865 137.058 34.865Z" fill="white" fill-opacity="0.95"/>
<path d="M158.3 38.21C156.84 38.21 155.52 37.96 154.34 37.46C153.18 36.96 152.26 36.24 151.58 35.3C150.9 34.36 150.55 33.25 150.53 31.97H155.03C155.09 32.83 155.39 33.51 155.93 34.01C156.49 34.51 157.25 34.76 158.21 34.76C159.19 34.76 159.96 34.53 160.52 34.07C161.08 33.59 161.36 32.97 161.36 32.21C161.36 31.59 161.17 31.08 160.79 30.68C160.41 30.28 159.93 29.97 159.35 29.75C158.79 29.51 158.01 29.25 157.01 28.97C155.65 28.57 154.54 28.18 153.68 27.8C152.84 27.4 152.11 26.81 151.49 26.03C150.89 25.23 150.59 24.17 150.59 22.85C150.59 21.61 150.9 20.53 151.52 19.61C152.14 18.69 153.01 17.99 154.13 17.51C155.25 17.01 156.53 16.76 157.97 16.76C160.13 16.76 161.88 17.29 163.22 18.35C164.58 19.39 165.33 20.85 165.47 22.73H160.85C160.81 22.01 160.5 21.42 159.92 20.96C159.36 20.48 158.61 20.24 157.67 20.24C156.85 20.24 156.19 20.45 155.69 20.87C155.21 21.29 154.97 21.9 154.97 22.7C154.97 23.26 155.15 23.73 155.51 24.11C155.89 24.47 156.35 24.77 156.89 25.01C157.45 25.23 158.23 25.49 159.23 25.79C160.59 26.19 161.7 26.59 162.56 26.99C163.42 27.39 164.16 27.99 164.78 28.79C165.4 29.59 165.71 30.64 165.71 31.94C165.71 33.06 165.42 34.1 164.84 35.06C164.26 36.02 163.41 36.79 162.29 37.37C161.17 37.93 159.84 38.21 158.3 38.21ZM185.101 29.33C185.101 29.93 185.061 30.47 184.981 30.95H172.831C172.931 32.15 173.351 33.09 174.091 33.77C174.831 34.45 175.741 34.79 176.821 34.79C178.381 34.79 179.491 34.12 180.151 32.78H184.681C184.201 34.38 183.281 35.7 181.921 36.74C180.561 37.76 178.891 38.27 176.911 38.27C175.311 38.27 173.871 37.92 172.591 37.22C171.331 36.5 170.341 35.49 169.621 34.19C168.921 32.89 168.571 31.39 168.571 29.69C168.571 27.97 168.921 26.46 169.621 25.16C170.321 23.86 171.301 22.86 172.561 22.16C173.821 21.46 175.271 21.11 176.911 21.11C178.491 21.11 179.901 21.45 181.141 22.13C182.401 22.81 183.371 23.78 184.051 25.04C184.751 26.28 185.101 27.71 185.101 29.33ZM180.751 28.13C180.731 27.05 180.341 26.19 179.581 25.55C178.821 24.89 177.891 24.56 176.791 24.56C175.751 24.56 174.871 24.88 174.151 25.52C173.451 26.14 173.021 27.01 172.861 28.13H180.751ZM187.387 29.69C187.387 27.97 187.737 26.47 188.437 25.19C189.137 23.89 190.107 22.89 191.347 22.19C192.587 21.47 194.007 21.11 195.607 21.11C197.667 21.11 199.367 21.63 200.707 22.67C202.067 23.69 202.977 25.13 203.437 26.99H198.907C198.667 26.27 198.257 25.71 197.677 25.31C197.117 24.89 196.417 24.68 195.577 24.68C194.377 24.68 193.427 25.12 192.727 26C192.027 26.86 191.677 28.09 191.677 29.69C191.677 31.27 192.027 32.5 192.727 33.38C193.427 34.24 194.377 34.67 195.577 34.67C197.277 34.67 198.387 33.91 198.907 32.39H203.437C202.977 34.19 202.067 35.62 200.707 36.68C199.347 37.74 197.647 38.27 195.607 38.27C194.007 38.27 192.587 37.92 191.347 37.22C190.107 36.5 189.137 35.5 188.437 34.22C187.737 32.92 187.387 31.41 187.387 29.69ZM222.504 21.38V38H218.274V35.9C217.734 36.62 217.024 37.19 216.144 37.61C215.284 38.01 214.344 38.21 213.324 38.21C212.024 38.21 210.874 37.94 209.874 37.4C208.874 36.84 208.084 36.03 207.504 34.97C206.944 33.89 206.664 32.61 206.664 31.13V21.38H210.864V30.53C210.864 31.85 211.194 32.87 211.854 33.59C212.514 34.29 213.414 34.64 214.554 34.64C215.714 34.64 216.624 34.29 217.284 33.59C217.944 32.87 218.274 31.85 218.274 30.53V21.38H222.504ZM231.148 23.96C231.688 23.08 232.388 22.39 233.248 21.89C234.128 21.39 235.128 21.14 236.248 21.14V25.55H235.138C233.818 25.55 232.818 25.86 232.138 26.48C231.478 27.1 231.148 28.18 231.148 29.72V38H226.948V21.38H231.148V23.96ZM241.507 19.4C240.767 19.4 240.147 19.17 239.647 18.71C239.167 18.23 238.927 17.64 238.927 16.94C238.927 16.24 239.167 15.66 239.647 15.2C240.147 14.72 240.767 14.48 241.507 14.48C242.247 14.48 242.857 14.72 243.337 15.2C243.837 15.66 244.087 16.24 244.087 16.94C244.087 17.64 243.837 18.23 243.337 18.71C242.857 19.17 242.247 19.4 241.507 19.4ZM243.577 21.38V38H239.377V21.38H243.577ZM252.916 24.83V32.87C252.916 33.43 253.046 33.84 253.306 34.1C253.586 34.34 254.046 34.46 254.686 34.46H256.636V38H253.996C250.456 38 248.686 36.28 248.686 32.84V24.83H246.706V21.38H248.686V17.27H252.916V21.38H256.636V24.83H252.916ZM275.857 21.38L265.567 45.86H261.097L264.697 37.58L258.037 21.38H262.747L267.037 32.99L271.387 21.38H275.857Z" fill="white"/>
</svg>
