<svg width="55" height="56" viewBox="0 0 55 56" fill="none" xmlns="http://www.w3.org/2000/svg">
<path d="M53.4583 21.7919H48.8194C48.6818 21.7919 48.5498 21.7375 48.4521 21.6407C48.3845 21.5738 48.3365 21.4898 48.3133 21.3976L48.093 20.5249C47.7524 19.5126 47.3398 18.526 46.8585 17.5725L46.814 17.4842L46.0465 16.2172L45.0233 14.6968L43.7442 13.1765L42.2093 11.6561L40.6744 10.3891L38.6279 9.12217L36.3256 7.8552C35.1343 7.3495 33.8989 6.95503 32.635 6.67682L32.2326 6.58824L30.4419 6.33484H25.0698C23.7087 6.50337 22.3674 6.80478 21.0651 7.23478L20.7209 7.34842L18.9302 8.1086L18.6672 8.23886C17.4822 8.82578 16.3687 9.5473 15.3488 10.3891L13.3023 12.1629L11.7674 13.6833L10.9943 14.5585C10.3178 15.3243 9.72472 16.1598 9.22492 17.0509C8.87391 17.6767 8.57012 18.3279 8.31606 18.999L7.93023 20.0181L7.56095 21.1155C7.29585 21.9032 7.08747 22.709 6.93741 23.5265C6.74697 24.564 6.65116 25.6167 6.65116 26.6715V30.1539L6.90698 32.4344L7.4186 34.4615C7.75885 35.4726 8.19875 36.4474 8.73182 37.3714L8.95349 37.7557L9.97674 39.5294L11.2558 41.3032C12.2776 42.4839 13.3911 43.5867 14.5814 44.5973L16.3721 45.8643L16.5546 45.9629C18.3065 46.9094 20.1267 47.7234 22 48.3982C23.3593 48.7348 24.7545 48.905 26.1548 48.905H28.058C29.1287 48.905 30.1926 48.7339 31.2093 48.3982L33 47.638L34.1534 46.9525C34.2313 46.9062 34.2791 46.8223 34.2791 46.7316C34.2791 46.663 34.2517 46.5973 34.2029 46.549L33.3765 45.7305C31.64 44.0104 32.8581 41.0498 35.3023 41.0498H35.814H35.8894C36.3408 41.0498 36.7822 41.1824 37.1588 41.4311L37.3132 41.533C37.3369 41.5487 37.359 41.5666 37.3792 41.5867L37.5762 41.7818C37.7763 41.98 38.1163 41.8383 38.1163 41.5566V40.2896V39.0142C38.1163 38.3638 37.8934 37.7331 37.4847 37.2271C37.2267 36.9076 36.9024 36.6477 36.5344 36.4654L36.0129 36.2071C35.7104 36.0573 35.3947 35.9356 35.0698 35.8437L33.7674 35.4751L30.4419 34.9683L27.3721 34.2081L23.5349 33.1946L22.416 32.8251C21.1287 32.4001 19.9406 31.7192 18.9232 30.8234L18.8504 30.7592C18.3931 30.3567 17.9775 29.9092 17.6098 29.4235L17.5022 29.2814C16.9239 28.5176 16.4858 27.6574 16.2081 26.7406L16.1943 26.695C15.973 25.9642 15.8605 25.2047 15.8605 24.4411C15.8605 23.5267 16.0217 22.6196 16.3368 21.7613L16.5017 21.3122C16.7557 20.6203 17.082 19.9572 17.4753 19.3339L17.6859 19.0001C18.0028 18.4979 18.3758 18.0334 18.7977 17.6155C19.3938 17.025 20.081 16.5342 20.8329 16.1618L21.2326 15.9638L22.7674 15.457C23.4471 15.2887 24.1447 15.2036 24.8449 15.2036H25.3256H34.2482C34.9483 15.2036 35.6459 15.2887 36.3256 15.457L37.093 15.7104L38.1163 16.2172L38.8449 16.6683C39.71 17.2039 40.4289 17.9454 40.9373 18.8267C41.1029 19.1137 41.245 19.4136 41.3623 19.7235L41.8849 21.104C41.9305 21.2243 41.9616 21.3496 41.9777 21.4772L42.1773 23.0584C42.1943 23.1931 42.0893 23.3122 41.9535 23.3122H37.7351C37.1845 23.3122 36.6807 23.0022 36.4326 22.5106C36.3617 22.3702 36.2686 22.2422 36.1569 22.1315L35.7199 21.6987C35.6123 21.5921 35.4945 21.4964 35.3681 21.413C34.9915 21.1643 34.5501 21.0317 34.0987 21.0317H34.0233H32.4884H28.1395H26.093H25.1276C24.5848 21.0317 24.0492 21.157 23.5628 21.398L23.4874 21.4353C23.3488 21.5039 23.2166 21.5849 23.0924 21.6771C22.5556 22.0759 22.1938 22.6669 22.0829 23.3264L22.044 23.5576C22.0147 23.7316 22 23.9077 22 24.0841V24.4116C22 24.855 22.1041 25.2922 22.3039 25.688C22.4415 25.9606 22.6222 26.2091 22.8392 26.424L23.046 26.6289C23.2012 26.7826 23.3671 26.9251 23.5424 27.0553L23.5643 27.0717C24.0523 27.4341 24.6021 27.7047 25.1869 27.8703L25.5666 27.9777C25.917 28.0769 26.2745 28.1492 26.636 28.1939L28.1395 28.3801L29.9302 28.6335L31.9767 28.8869L34.0233 29.1403L36.3256 29.6471L37.7042 29.9885C38.1488 30.0985 38.5839 30.2438 39.0054 30.4227L39.0358 30.4356C39.7832 30.7529 40.4808 31.1765 41.107 31.6934C41.5 32.0178 41.8627 32.3772 42.1907 32.7671L42.9767 33.7014L43.3184 34.209C43.7694 34.8791 44.1011 35.6221 44.2987 36.4053C44.4401 36.9655 44.5116 37.5411 44.5116 38.1189V39.5294L44.4014 41.1677C44.3049 42.6016 43.9972 44.0134 43.4884 45.3575C42.8758 46.5711 43.0988 48.0396 44.044 49.0166L45.7401 50.7697C47.0306 52.1035 46.6499 54.3075 44.9868 55.1312C43.9374 55.6509 42.6737 55.4465 41.8418 54.6224L39.5335 52.336C39.0127 51.8201 38.1931 51.7619 37.6047 52.1991L35.814 53.2127L35.6692 53.2764C34.2344 53.9081 32.7404 54.396 31.2093 54.733L28.907 54.9864H25.9971C24.8689 54.9864 23.7423 54.9011 22.6269 54.7311C21.5283 54.5637 20.4437 54.3147 19.3822 53.986L16.8837 53.2127L14.0698 51.9457L12.0233 50.6787L11.2544 50.1248C9.89308 49.1442 8.61058 48.0585 7.4186 46.8778L5.88372 45.1041C4.52322 43.4195 3.34521 41.5955 2.36947 39.6624L2.30233 39.5294L1.84204 38.3896C1.12793 36.6212 0.615894 34.7778 0.31568 32.8944C0.105556 31.5762 0 30.2435 0 28.9086V28.1267L0.105468 26.0373C0.205326 24.059 0.546107 22.1003 1.12026 20.2046C1.56622 18.7321 2.15067 17.3053 2.86578 15.9431L3.29141 15.1323C4.50396 12.8225 5.97829 10.6599 7.68529 8.68728L8.18605 8.1086C10.2288 6.25375 12.4259 4.5762 14.7533 3.09414L14.8372 3.04072L17.3953 1.77376L20.2093 0.760181L21.7284 0.337349L22.8995 0.0464454C23.0236 0.0155968 23.1511 0 23.2791 0H23.5349H24.5581H26.8605H30.6977L31.9767 0.0944548L33.2558 0.347848L34.0233 0.506787L35.814 1.01357L37.6047 1.52036L39.3953 2.28054L41.4419 3.29412L43.2326 4.30769L44.7674 5.32127L46.3023 6.58824L48.093 8.36199L49.3721 9.88235L50.3954 11.1493L51.4186 12.6697L51.9302 13.6833L52.4419 14.6968L52.9535 15.7104L53.4651 16.724L53.9767 17.7376L54.0044 17.806C54.3264 18.6033 54.574 19.4286 54.7442 20.2715C54.878 21.0669 54.2649 21.7919 53.4583 21.7919Z" fill="white"/>
</svg>
